#!OML:ASF H:\Terrain\Patient Classification 1\Terrain2\Thursday\justin.ASF
:FULLY-SPECIFIED
:DEGREES
4050
root 8.91239 23.5946 9.65608 178.416 3.15721 -165.735
lowerback 13.8814 0.236304 13.2331
upperback 4.54211 3.58392 5.67234
thorax -2.59279 2.31365 -1.97967
lowerneck -13.5996 -1.3467 -10.2079
upperneck 33.7843 -4.72953 6.6878
head 14.1812 -3.52802 3.49887
rclavicle 2.99171e-014 1.11319e-013
rhumerus -22.8503 -1.84572 -80.8057
rradius 31.7686
rwrist -10.708
rhand -24.6467 15.4897
rfingers 7.12502
rthumb 1.8528 -14.482
lclavicle 2.99171e-014 1.11319e-013
lhumerus -32.8168 0.540733 87.5488
lradius 31.3986
lwrist 3.53647
lhand -21.6781 22.5845
lfingers 7.12502
lthumb 4.71958 52.512
rfemur 23.4326 -2.38861 39.3207
rtibia -2.22639e-014
rfoot -10.8905 -0.682435
rtoes 6.83936
lfemur -66.1299 10.7977 -9.80923
ltibia 68.1953
lfoot 7.77602 -15.1674
ltoes -9.38318
4051
root 8.90818 23.5811 9.54001 178.717 3.19119 -165.737
lowerback 13.774 0.228849 12.9165
upperback 4.36734 3.5176 5.804
thorax -2.75834 2.25641 -1.66172
lowerneck -13.3726 -1.23847 -10.4083
upperneck 33.7563 -4.56841 6.70978
head 14.1036 -3.49604 3.56824
rclavicle -2.50469e-014 -6.20208e-014
rhumerus -22.8245 -2.00105 -80.6982
rradius 30.8534
rwrist -10.1469
rhand -24.1866 14.8009
rfingers 7.12502
rthumb 2.29711 -15.1665
lclavicle -2.50469e-014 -6.20208e-014
lhumerus -32.9802 1.04741 87.63
lradius 30.9834
lwrist 3.1224
lhand -21.7989 22.0323
lfingers 7.12502
lthumb 4.603 51.9623
rfemur 23.5479 -2.32092 39.2609
rtibia -2.8625e-014
rfoot -10.7424 -0.507105
rtoes 7.4707
lfemur -66.1175 10.665 -9.69249
ltibia 68.0885
lfoot 7.7447 -15.2903
ltoes -9.43201
4052
root 8.89725 23.5823 9.41981 178.957 3.283 -165.904
lowerback 13.7032 0.283636 12.6116
upperback 4.2844 3.52525 5.83803
thorax -2.82752 2.24435 -1.46208
lowerneck -13.4214 -1.22717 -10.6715
upperneck 33.8064 -4.51236 6.79524
head 14.14 -3.49831 3.65969
rclavicle -1.35174e-014 -2.3059e-014
rhumerus -22.7113 -2.48699 -80.4701
rradius 29.8728
rwrist -9.56341
rhand -23.1554 13.2534
rfingers 7.12502
rthumb 3.29305 -16.7009
lclavicle -1.35174e-014 -2.3059e-014
lhumerus -33.1197 1.20374 87.8367
lradius 30.8113
lwrist 2.9632
lhand -21.8272 22.1378
lfingers 7.12502
lthumb 4.57564 52.0683
rfemur 23.6989 -2.19755 38.9751
rtibia -1.90833e-014
rfoot -10.4847 -0.281494
rtoes 8.49388
lfemur -65.9652 10.4787 -9.67225
ltibia 68.1106
lfoot 7.95838 -15.3714
ltoes -7.34721
4053
root 8.88054 23.5761 9.29014 179.175 3.27496 -165.86
lowerback 13.5783 0.360499 12.907
upperback 4.22839 3.61788 5.67539
thorax -2.77699 2.28062 -1.80189
lowerneck -13.5376 -1.33273 -10.5586
upperneck 33.7666 -4.68788 6.86612
head 14.1686 -3.53792 3.64094
rclavicle 5.1684e-015 4.37326e-014
rhumerus -22.7767 -3.53796 -80.4338
rradius 29.1424
rwrist -9.22554
rhand -22.7088 12.7131
rfingers 7.12502
rthumb 3.72435 -17.2341
lclavicle 5.1684e-015 4.37326e-014
lhumerus -33.0615 0.714601 87.9328
lradius 30.6127
lwrist 3.00366
lhand -20.8773 22.6231
lfingers 7.12502
lthumb 5.49278 52.5319
rfemur 23.8706 -2.18329 38.8988
rtibia 3.18055e-014
rfoot -10.3517 -0.145273
rtoes 6.85201
lfemur -65.758 10.1624 -9.38008
ltibia 68.3715
lfoot 7.78495 -15.8447
ltoes -5.00875
4054
root 8.8679 23.5683 9.15993 179.383 3.25706 -165.863
lowerback 13.5444 0.446664 13.0709
upperback 4.18921 3.71654 5.49676
thorax -2.76285 2.31763 -2.0919
lowerneck -13.709 -1.45403 -10.3333
upperneck 33.7026 -4.87737 6.87664
head 14.1958 -3.57063 3.57452
rclavicle -2.28602e-014 -4.29375e-014
rhumerus -22.8836 -4.57083 -80.4693
rradius 28.6071
rwrist -8.87658
rhand -22.5931 12.8736
rfingers 7.12502
rthumb 3.83607 -17.0716
lclavicle -2.28602e-014 -4.29375e-014
lhumerus -32.795 0.582958 87.8382
lradius 30.2129
lwrist 2.48862
lhand -19.6829 22.7343
lfingers 7.12502
lthumb 6.64598 52.61
rfemur 24.0505 -2.18463 38.7915
rtibia -1.90833e-014
rfoot -10.2344 -0.0233653
rtoes 3.9242
lfemur -65.5683 9.92287 -9.24362
ltibia 68.7301
lfoot 7.05554 -16.6032
ltoes -2.76515
4055
root 8.85478 23.5613 9.03198 179.574 3.25833 -165.911
lowerback 13.5845 0.458762 12.9219
upperback 4.20434 3.71564 5.49781
thorax -2.77808 2.3158 -2.01193
lowerneck -14.0514 -1.4783 -10.2648
upperneck 33.7048 -4.79748 6.7513
head 14.2609 -3.52065 3.52443
rclavicle -3.98563e-014 -4.85035e-014
rhumerus -22.8809 -5.16532 -80.3686
rradius 28.1414
rwrist -8.38386
rhand -22.303 12.7812
rfingers 7.12502
rthumb 4.11616 -17.1588
lclavicle -3.98563e-014 -4.85035e-014
lhumerus -32.6051 0.94552 87.8533
lradius 29.8681
lwrist 1.90162
lhand -19.5338 21.8274
lfingers 7.12502
lthumb 6.78988 51.6985
rfemur 24.2854 -2.17591 38.6539
rtibia 3.18055e-015
rfoot -9.8063 0.0228927
rtoes 3.13164
lfemur -65.3933 9.71286 -9.18818
ltibia 69.1388
lfoot 6.01702 -17.3938
ltoes -0.933345
4056
root 8.84196 23.5736 8.90126 179.836 3.27868 -166.021
lowerback 13.5702 0.461216 12.6425
upperback 4.09681 3.67504 5.5468
thorax -2.91106 2.2772 -1.80686
lowerneck -14.15 -1.4395 -10.3129
upperneck 33.7081 -4.63269 6.57568
head 14.263 -3.47268 3.48732
rclavicle -3.60794e-014 -2.14687e-014
rhumerus -23.1243 -5.60637 -80.2269
rradius 27.6485
rwrist -7.81114
rhand -22.3719 12.8608
rfingers 7.12502
rthumb 4.04969 -17.0804
lclavicle -3.60794e-014 -2.14687e-014
lhumerus -32.7541 1.39381 87.8773
lradius 29.5251
lwrist 1.54839
lhand -19.4827 21.0296
lfingers 7.12502
lthumb 6.83925 50.8992
rfemur 24.6852 -2.12419 38.4663
rtibia -3.18055e-014
rfoot -9.4251 -0.0166101
rtoes 2.33844
lfemur -65.0879 9.41875 -9.10342
ltibia 69.5133
lfoot 4.59069 -18.0232
ltoes -0.410974
4057
root 8.83122 23.6031 8.76422 180.136 3.34637 -166.402
lowerback 13.5337 0.594211 12.2203
upperback 3.95615 3.74302 5.42506
thorax -3.04833 2.27682 -1.71947
lowerneck -14.109 -1.51858 -10.404
upperneck 33.5822 -4.70811 6.60673
head 14.2099 -3.50291 3.50276
rclavicle -3.08116e-015 -4.53229e-014
rhumerus -23.4629 -6.40266 -80.0873
rradius 27.0783
rwrist -7.31129
rhand -22.4119 13.5576
rfingers 7.12502
rthumb 4.01105 -16.3844
lclavicle -3.08116e-015 -4.53229e-014
lhumerus -32.8294 1.66184 87.8334
lradius 29.1734
lwrist 1.03946
lhand -19.8687 20.9372
lfingers 7.12502
lthumb 6.46652 50.8185
rfemur 24.8064 -1.99386 37.9281
rtibia -4.13472e-014
rfoot -8.90501 0.267407
rtoes 1.31989
lfemur -64.705 9.14247 -9.31981
ltibia 69.8342
lfoot 3.34289 -18.2471
ltoes 1.30623
4058
root 8.81715 23.6373 8.62634 180.445 3.29108 -166.67
lowerback 13.4167 0.668067 11.9383
upperback 3.87947 3.75165 5.3386
thorax -3.07473 2.26325 -1.65595
lowerneck -14.1516 -1.56641 -10.4504
upperneck 33.4317 -4.71889 6.64504
head 14.1561 -3.49015 3.52427
rclavicle -2.14687e-014 -7.31528e-014
rhumerus -23.6822 -7.18123 -79.9165
rradius 26.524
rwrist -7.05825
rhand -22.2633 14.2753
rfingers 7.12502
rthumb 4.15449 -15.6639
lclavicle -2.14687e-014 -7.31528e-014
lhumerus -32.8122 1.83032 87.9032
lradius 29.0834
lwrist 0.609432
lhand -19.9583 21.0004
lfingers 7.12502
lthumb 6.38004 50.8843
rfemur 24.7979 -1.97799 37.4786
rtibia -3.18055e-014
rfoot -8.2996 0.674504
rtoes -0.125055
lfemur -64.3958 8.75394 -9.40443
ltibia 70.174
lfoot 2.46235 -18.1737
ltoes 4.8919
4059
root 8.80103 23.6736 8.49005 180.788 3.19957 -166.741
lowerback 13.2883 0.696721 11.8626
upperback 3.77336 3.73914 5.27682
thorax -3.11791 2.24039 -1.67521
lowerneck -14.1926 -1.55002 -10.3669
upperneck 33.4622 -4.71701 6.64028
head 14.176 -3.47956 3.50826
rclavicle 9.0447e-015 1.23246e-014
rhumerus -23.9836 -7.81574 -79.8387
rradius 26.0628
rwrist -6.96559
rhand -22.4113 14.7595
rfingers 7.12502
rthumb 4.01155 -15.1825
lclavicle 9.0447e-015 1.23246e-014
lhumerus -32.8557 1.85127 87.9389
lradius 29.0825
lwrist 0.570827
lhand -19.5387 21.5752
lfingers 7.12502
lthumb 6.78509 51.4465
rfemur 24.7848 -1.99878 37.2562
rtibia 1.27222e-014
rfoot -7.44174 0.99366
rtoes -1.58773
lfemur -64.172 8.35398 -9.25771
ltibia 70.5472
lfoot 1.51691 -18.0095
ltoes 7.04461
4060
root 8.78606 23.7097 8.35142 181.19 3.19459 -166.91
lowerback 13.1837 0.846464 11.7408
upperback 3.65359 3.86452 5.11687
thorax -3.16773 2.27776 -1.79346
lowerneck -14.3488 -1.63722 -10.2341
upperneck 33.5679 -4.91554 6.71708
head 14.2806 -3.53798 3.48496
rclavicle 8.94531e-016 -1.07344e-014
rhumerus -24.3913 -8.40508 -79.8315
rradius 25.7952
rwrist -7.0221
rhand -22.581 14.8291
rfingers 7.12502
rthumb 3.84773 -15.1159
lclavicle 8.94531e-016 -1.07344e-014
lhumerus -32.8506 1.78995 87.8769
lradius 28.9088
lwrist 0.632052
lhand -19.7146 22.1827
lfingers 7.12502
lthumb 6.6153 52.0594
rfemur 24.761 -1.92126 36.9377
rtibia -1.59028e-014
rfoot -6.43305 1.27678
rtoes -3.06614
lfemur -64.0364 8.16685 -9.36404
ltibia 70.8816
lfoot 0.550446 -17.8084
ltoes 7.6878
4061
root 8.7704 23.7425 8.20765 181.583 3.11036 -167.024
lowerback 13.0731 0.924111 11.6317
upperback 3.5188 3.91346 5.04312
thorax -3.24528 2.28075 -1.81722
lowerneck -14.4482 -1.67791 -10.1799
upperneck 33.5587 -4.95046 6.68414
head 14.301 -3.54163 3.45622
rclavicle -3.69739e-014 -2.34566e-014
rhumerus -24.8421 -8.7829 -79.7313
rradius 25.6151
rwrist -6.96647
rhand -22.5532 14.6279
rfingers 7.12502
rthumb 3.87453 -15.3166
lclavicle -3.69739e-014 -2.34566e-014
lhumerus -32.9463 2.06419 87.8278
lradius 28.6217
lwrist 0.47339
lhand -19.527 22.1506
lfingers 7.12502
lthumb 6.79644 52.0215
rfemur 24.7039 -1.91767 36.6476
rtibia 1.01778e-013
rfoot -5.36945 1.81746
rtoes -5.89069
lfemur -63.92 7.95037 -9.52667
ltibia 71.143
lfoot -0.456204 -17.4379
ltoes 8.06232
4062
root 8.75709 23.7726 8.06137 181.847 2.99353 -167.081
lowerback 13.0694 0.889211 11.4975
upperback 3.42525 3.84327 5.03658
thorax -3.35838 2.23186 -1.74415
lowerneck -14.4553 -1.63916 -10.2598
upperneck 33.5026 -4.84185 6.6761
head 14.2669 -3.5001 3.48488
rclavicle 1.51076e-014 2.78299e-015
rhumerus -25.3074 -9.02052 -79.6193
rradius 25.5116
rwrist -6.70087
rhand -22.5561 14.6958
rfingers 7.12502
rthumb 3.87176 -15.2488
lclavicle 1.51076e-014 2.78299e-015
lhumerus -33.0107 2.77092 87.6816
lradius 28.2437
lwrist -0.00286934
lhand -18.7448 21.5451
lfingers 7.12502
lthumb 7.55144 51.3903
rfemur 24.7834 -1.98344 36.4102
rtibia -6.99722e-014
rfoot -4.12837 2.30339
rtoes -7.47478
lfemur -63.6931 7.72204 -9.66629
ltibia 71.3251
lfoot -1.12013 -16.8653
ltoes 8.62116
4063
root 8.74554 23.817 7.91607 182.067 2.98805 -167.253
lowerback 13.2123 0.974658 11.274
upperback 3.36234 3.92347 4.92132
thorax -3.49944 2.25233 -1.76421
lowerneck -14.5767 -1.71669 -10.2273
upperneck 33.4487 -4.95437 6.76285
head 14.2852 -3.51973 3.49635
rclavicle -2.0773e-014 -1.03766e-013
rhumerus -25.8566 -9.40626 -79.5535
rradius 25.5767
rwrist -6.67357
rhand -22.6076 14.9865
rfingers 7.12502
rthumb 3.82199 -14.959
lclavicle -2.0773e-014 -1.03766e-013
lhumerus -33.0641 2.98846 87.5609
lradius 28.1296
lwrist -0.134341
lhand -18.5911 20.8871
lfingers 7.12502
lthumb 7.69982 50.727
rfemur 24.9016 -1.96246 36.0688
rtibia -8.90555e-014
rfoot -2.65601 2.34798
rtoes -6.07853
lfemur -63.4428 7.75034 -10.0172
ltibia 71.4683
lfoot -1.51696 -16.3397
ltoes 9.00484
4064
root 8.731 23.8709 7.76591 182.329 2.96203 -167.592
lowerback 13.3071 1.1243 10.9504
upperback 3.25538 4.04625 4.71889
thorax -3.65543 2.28422 -1.82645
lowerneck -14.6294 -1.83358 -10.1493
upperneck 33.3204 -5.17432 6.95552
head 14.2686 -3.5638 3.52487
rclavicle 2.88238e-015 5.24792e-014
rhumerus -26.5033 -9.81555 -79.5205
rradius 25.6791
rwrist -6.84496
rhand -22.7717 14.8339
rfingers 7.12502
rthumb 3.66359 -15.1144
lclavicle 2.88238e-015 5.24792e-014
lhumerus -33.2237 2.66978 87.5576
lradius 28.2585
lwrist 0.256666
lhand -18.3464 21.8849
lfingers 7.12502
lthumb 7.93605 51.7159
rfemur 24.9534 -1.94933 35.5376
rtibia -6.36111e-014
rfoot -1.23214 2.51179
rtoes -6.0365
lfemur -63.2141 7.78365 -10.5668
ltibia 71.6459
lfoot -2.54639 -15.9899
ltoes 7.54293
